<svg width="64" height="64" viewBox="0 0 64 64" fill="none" xmlns="http://www.w3.org/2000/svg">
<path d="M32 39.1111C35.8619 39.1111 39.5657 40.6095 42.2965 43.2767C43.2866 44.2438 44.1194 45.3357 44.7788 46.5147C45.5503 47.894 45.4677 50.1155 44.8334 52.2843M32 39.1111C28.1381 39.1111 24.4343 40.6095 21.7035 43.2767C20.7134 44.2438 19.8806 45.3357 19.2212 46.5147C18.4497 47.894 18.5323 50.1155 19.1666 52.2843M32 39.1111C37.0263 39.1111 41.1009 35.1314 41.1009 30.2222C41.1009 25.313 37.0263 21.3333 32 21.3333C26.9737 21.3333 22.8991 25.313 22.8991 30.2222C22.8991 35.1314 26.9737 39.1111 32 39.1111ZM44.8334 52.2843C51.5449 48.0291 56 40.5348 56 32C56 18.7452 45.2548 8 32 8C18.7452 8 8 18.7452 8 32C8 40.5348 12.4551 48.0291 19.1666 52.2843M44.8334 52.2843C41.1218 54.6375 36.72 56 32 56C27.28 56 22.8782 54.6375 19.1666 52.2843" stroke="#DDDDDD" stroke-width="2"/>
</svg>
